<svg xmlns="http://www.w3.org/2000/svg" viewBox="0 0 400 300" fill="none">
  <rect width="400" height="300" fill="#F0F2F5"/>
  <rect x="1" y="1" width="398" height="298" rx="3" stroke="#D8DCE2" stroke-width="1"/>
  <g transform="translate(200,150)" opacity="0.4">
    <path d="M0-46a46 46 0 0 1 0 92 46 46 0 0 1 0-92z" fill="#B0B8C4"/>
    <path d="M-30-24h-14a6 6 0 0 0-6 6v36a6 6 0 0 0 6 6h88a6 6 0 0 0 6-6v-36a6 6 0 0 0-6-6H30l-8-12H-22z" stroke="#6B7280" stroke-width="2.5" stroke-linecap="round" stroke-linejoin="round" fill="none"/>
    <circle cx="0" cy="4" r="12" stroke="#6B7280" stroke-width="2.5" fill="none"/>
  </g>
</svg>
